<?xml version="1.0" encoding="utf-8"?>
<!-- Generator: Adobe Illustrator 27.0.0, SVG Export Plug-In . SVG Version: 6.00 Build 0)  -->
<svg version="1.1" xmlns="http://www.w3.org/2000/svg" xmlns:xlink="http://www.w3.org/1999/xlink" x="0px" y="0px"
	 viewBox="0 0 3500 538.3" style="enable-background:new 0 0 3500 538.3;" xml:space="preserve">
<g id="MAIN">
	<rect x="417.7" y="276.4" width="120.3" height="261.7"/>
	<rect y="276.4" width="120.3" height="261.7"/>
	<rect x="136.1" y="276.5" width="266.1" height="120.3"/>
	<path d="M417.8,261.8h120.3C534.3,119,419.2,3.9,276.4,0.1v120.4C352.8,124.2,414,185.4,417.8,261.8z"/>
	<path d="M261.8,120.4l0-120.3C118.9,3.9,3.8,119,0,261.8l120.4,0C124.2,185.4,185.3,124.2,261.8,120.4z"/>
	<rect x="963.9" y="0.1" width="120.3" height="538.1"/>
	<path d="M1240.2,0.1l120.3,0c-3.8,142.9-118.9,257.9-261.7,261.7V141.4C1175.3,137.7,1236.5,76.5,1240.2,0.1z"/>
	<path d="M1098.8,396.7l0-120.3c142.9,3.8,257.9,118.9,261.7,261.7h-120.4C1236.4,461.7,1175.3,400.5,1098.8,396.7z"/>
	<rect x="1375.1" y="0.1" width="120.3" height="538.1"/>
	<rect x="1510" y="0.1" width="261.7" height="120.3"/>
	<rect x="1510" y="417.8" width="261.7" height="120.3"/>
	<rect x="1510" y="209" width="232.6" height="120.3"/>
	<rect x="3103.4" y="0.1" width="120.3" height="538.1"/>
	<rect x="3238.3" y="0.1" width="261.7" height="120.3"/>
	<rect x="3238.3" y="417.8" width="261.7" height="120.3"/>
	<rect x="3238.2" y="209" width="232.6" height="120.3"/>
	<rect x="1786.3" y="0.1" width="120.3" height="261.7"/>
	<path d="M1906.7,276.4l-120.3,0c3.8,142.9,118.9,257.9,261.7,261.7V417.7C1971.6,414,1910.4,352.8,1906.7,276.4z"/>
	<rect x="2062.7" y="417.8" width="219" height="120.3"/>
	<rect x="1921.3" y="0.1" width="204.4" height="120.3"/>
	<rect x="2349.9" y="276.4" width="120.7" height="261.9"/>
	<path d="M2261.5,0.1l-120.3,0C2145,143,2260.1,258,2402.9,261.8V141.4C2326.5,137.7,2265.3,76.5,2261.5,0.1z"/>
	<path d="M2417.5,141.5l0,120.3C2560.4,258,2675.4,143,2679.3,0.1l-120.4,0C2555.1,76.5,2493.9,137.7,2417.5,141.5z"/>
	<rect x="552.7" y="0.1" width="120.3" height="538.1"/>
	<rect x="687.6" y="0.1" width="120.3" height="261.7"/>
	<path d="M829,538.1l120.3,0c-3.8-142.9-118.9-257.9-261.7-261.7l0,120.4C764.1,400.5,825.3,461.7,829,538.1z"/>
	<path d="M822.5,0.1v261.7c67.6-5.4,120.8-61.9,120.8-130.9S890.1,5.5,822.5,0.1z"/>
	<rect x="2697.4" y="0.1" width="120.3" height="538.1"/>
	<rect x="2832.3" y="0.1" width="120.3" height="261.7"/>
	<path d="M2967.3,0v261.7c67.6-5.4,120.8-61.9,120.8-130.9S3034.9,5.4,2967.3,0z"/>
</g>
<g id="GUIDES">
</g>
</svg>
