<svg width="1512" height="1812" viewBox="0 0 1512 1812" fill="none" xmlns="http://www.w3.org/2000/svg">
<path fill-rule="evenodd" clip-rule="evenodd" d="M0 0H1512V1811.59H0V0ZM598.341 314.589H467.854V598.341H598.341V314.589ZM15 314.589H145.487V598.341H15V314.589ZM450.933 314.589H162.516V445.076H450.933V314.589ZM598.342 298.753H467.855C463.841 215.883 397.459 149.609 314.589 145.487V15C469.482 19.1218 594.22 143.86 598.342 298.753ZM298.753 145.487V15C143.86 19.1218 19.1218 143.86 15 298.753H145.487C149.609 215.883 215.883 149.5 298.753 145.487ZM1066.06 15H1197.41V598.341H1066.06V15ZM1366.51 15H1497C1492.88 169.892 1368.14 294.631 1213.25 298.753V168.265C1296.12 164.144 1362.5 97.8696 1366.51 15ZM1213.25 314.481V444.968C1296.12 449.09 1362.39 515.472 1366.51 598.233H1497C1492.88 443.341 1368.14 318.602 1213.25 314.481ZM744.666 15H614.179V598.341H744.666V15ZM760.393 15H890.88V298.753H760.393V15ZM913.659 598.341H1044.15C1040.02 443.449 915.286 318.711 760.393 314.589V445.076C843.263 449.089 909.645 515.472 913.659 598.341ZM1037.64 156.876C1037.64 231.719 979.932 292.895 906.608 298.753V15C979.932 20.8573 1037.64 82.0333 1037.64 156.876ZM145.487 614.178H15V1197.52H145.487V614.178ZM161.215 614.069H444.967V744.556H161.215V614.069ZM890.879 614.069H614.069V744.556H890.879V614.069ZM767.335 1066.92H1059.76V1197.41H767.335V1066.92ZM444.967 1066.92H161.215V1197.41H444.967V1066.92ZM161.215 840.659H413.294V971.146H161.215V840.659ZM598.341 614.178H467.854V897.93H598.341V614.178ZM467.747 913.658H598.234C602.356 996.528 668.738 1062.91 751.499 1066.92V1197.41C596.607 1193.29 471.868 1068.55 467.747 913.658ZM1270.74 913.658H1139.92V1197.63H1270.74V913.658ZM913.658 614.069H1044.15C1048.16 696.939 1114.54 763.321 1197.41 767.335V897.822C1042.52 893.7 917.78 768.962 913.658 614.069ZM1213.25 767.443V897.93C1368.14 893.808 1492.88 769.07 1497 614.178H1366.51C1362.39 696.939 1296.12 763.321 1213.25 767.443ZM467.854 1213.25H598.341V1796.59H467.854V1213.25ZM897.821 1213.14H614.069V1343.63H897.821V1213.14ZM614.069 1665.99H897.821V1796.48H614.069V1665.99ZM866.149 1439.73H614.069V1570.22H866.149V1439.73ZM15 1213.25H145.487V1796.59H15V1213.25ZM291.702 1213.25H161.215V1497H291.702V1213.25ZM307.539 1496.89V1213.14C380.755 1219 438.568 1280.17 438.568 1355.02C438.568 1429.86 380.863 1491.03 307.539 1496.89Z" fill="black"/>
</svg>
