<svg width="1512" height="952" viewBox="0 0 1512 952" fill="none" xmlns="http://www.w3.org/2000/svg">
<path fill-rule="evenodd" clip-rule="evenodd" d="M0 0H1512V952H0V0ZM462.453 244.881H362.4V462.619H462.453V244.881ZM15 244.881H115.053V462.619H15V244.881ZM349.509 244.881H128.194V344.934H349.509V244.881ZM462.536 232.738H362.483C359.323 169.113 308.423 118.297 244.881 115.136V15C363.648 18.1604 459.376 113.889 462.536 232.738ZM232.738 115.136V15.0832C113.889 18.1605 18.1604 113.889 15 232.738H115.136C118.297 169.113 169.113 118.214 232.738 115.136ZM822.078 15H922.131V462.536H822.078V15ZM1051.88 15H1151.93C1148.77 133.849 1053.04 229.495 934.274 232.655V132.519C997.815 129.441 1048.72 78.6248 1051.88 15ZM934.274 244.881V344.934C997.815 348.011 1048.72 398.911 1051.79 462.536H1151.93C1148.77 343.77 1053.12 248.041 934.274 244.881ZM1267.12 15H1167.07V462.536H1267.12V15ZM1279.26 15H1497V115.053H1279.26V15ZM1497 362.4H1279.26V462.536H1497V362.4ZM1279.26 188.741H1472.71V288.795H1279.26V188.741ZM580.054 15H480.001V462.536H580.054V15ZM592.197 15H692.25V232.738H592.197V15ZM709.882 462.536H809.935C806.775 343.686 711.047 248.041 592.197 244.881V345.017C655.822 348.094 706.722 398.994 709.882 462.536ZM804.946 123.869C804.946 181.256 760.7 228.247 704.477 232.738V15C760.7 19.4912 804.946 66.482 804.946 123.869ZM1267.12 474.762H1167.07V922.298H1267.12V474.762ZM1279.26 474.762H1497V574.815H1279.26V474.762ZM1497 822.162H1279.26V922.215H1497V822.162ZM1279.26 648.503H1472.71V748.556H1279.26V648.503ZM115.053 474.762H15V692.5H115.053V474.762ZM15 704.56H115.136C118.214 768.102 169.113 819.001 232.738 822.162V922.298C113.889 919.055 18.1604 823.409 15 704.56ZM480.75 822.162H244.881V922.215H480.75V822.162ZM127.279 474.762H351.005V574.815H127.279V474.762ZM636.361 704.56H535.975V922.381H636.361V704.56ZM362.4 474.762H462.453C465.614 538.303 516.514 589.203 580.055 592.281V692.417C461.289 689.256 365.561 593.611 362.4 474.762ZM592.197 592.364V692.417C711.047 689.256 806.692 593.528 809.935 474.762H709.799C706.722 538.303 655.822 589.203 592.197 592.364ZM822.078 474.762H922.131V922.298H822.078V474.762ZM1039.73 474.762H934.358V692.417H1039.73V474.762ZM1051.79 692.417V474.679C1108.02 479.17 1152.26 526.161 1152.26 583.548C1152.26 640.935 1108.02 687.926 1051.79 692.417Z" fill="black"/>
</svg>
